<svg xmlns="http://www.w3.org/2000/svg" viewBox="0 0 38.44 51.85"><defs><style>.cls-1{fill:#0b658c;}.cls-2{fill:#13abdf;}.cls-3{fill:#27b3e8;}</style></defs><title>Asset 2</title><g id="Layer_2" data-name="Layer 2"><g id="Layer_1-2" data-name="Layer 1"><path class="cls-1" d="M4.07,49.51A41.08,41.08,0,0,1,0,35V48s1.56-.61,4.07,1.47"/><path class="cls-2" d="M32.54,48.75S19.34,34.07,25.1,0c0,0-16.71,10.35-16.71,39.83,0,0,4.54-8.27,24.15,8.92"/><path class="cls-3" d="M13.85,7.47S5.93,18.25,5.93,30.72c0,0-.43-6.75-5.93-4.16,0,0,3.21-13.83,13.85-19.09"/><path class="cls-1" d="M6.41,49.77s3.63-4.24,18.35,0a122,122,0,0,0,13.68,2.08S11.86,43.62,0,29.34c0,0,2.42,15.75,6.41,20.43"/></g></g></svg>